<?xml version="1.0" encoding="UTF-8" standalone="no"?>
<!-- Created with Inkscape (http://www.inkscape.org/) -->

<svg
   xmlns:dc="http://purl.org/dc/elements/1.1/"
   xmlns:cc="http://creativecommons.org/ns#"
   xmlns:rdf="http://www.w3.org/1999/02/22-rdf-syntax-ns#"
   xmlns:svg="http://www.w3.org/2000/svg"
   xmlns="http://www.w3.org/2000/svg"
   xmlns:xlink="http://www.w3.org/1999/xlink"
   xmlns:sodipodi="http://sodipodi.sourceforge.net/DTD/sodipodi-0.dtd"
   xmlns:inkscape="http://www.inkscape.org/namespaces/inkscape"
   version="1.1"
   width="199.8125"
   height="227.4115"
   id="svg2"
   xml:space="preserve"
   sodipodi:docname="logo.svg"
   inkscape:version="0.92.1 r"><sodipodi:namedview
     pagecolor="#ffffff"
     bordercolor="#666666"
     borderopacity="1"
     objecttolerance="10"
     gridtolerance="10"
     guidetolerance="10"
     inkscape:pageopacity="0"
     inkscape:pageshadow="2"
     inkscape:window-width="1848"
     inkscape:window-height="1018"
     id="namedview40"
     showgrid="false"
     fit-margin-top="0"
     fit-margin-left="0"
     fit-margin-right="0"
     fit-margin-bottom="0"
     inkscape:zoom="0.97738413"
     inkscape:cx="102.97567"
     inkscape:cy="113.70575"
     inkscape:window-x="72"
     inkscape:window-y="30"
     inkscape:window-maximized="1"
     inkscape:current-layer="svg2" /><metadata
     id="metadata8"><rdf:RDF><cc:Work
         rdf:about=""><dc:format>image/svg+xml</dc:format><dc:type
           rdf:resource="http://purl.org/dc/dcmitype/StillImage" /><dc:title></dc:title></cc:Work></rdf:RDF></metadata><defs
     id="defs6"><clipPath
       id="clipPath18"><path
         d="M 0,501.602 V 0 h 1863.85 v 501.602 z"
         id="path20"
         inkscape:connector-curvature="0" /></clipPath><linearGradient
       x1="-1073.228"
       y1="126.8516"
       x2="-1073.228"
       y2="1.2789771e-13"
       id="SVGID_2_"
       gradientUnits="userSpaceOnUse"
       gradientTransform="matrix(-1,0,0,1,-1008.1914,0)"><stop
         id="stop248"
         style="stop-color:#1b3967;stop-opacity:1"
         offset="0.011" /><stop
         id="stop250"
         style="stop-color:#13b5ea;stop-opacity:1"
         offset="0.46700001" /><stop
         id="stop252"
         style="stop-color:#002b5c;stop-opacity:1"
         offset="0.99449998" /></linearGradient><linearGradient
       x1="-1807.2036"
       y1="125.8584"
       x2="-1807.2036"
       y2="0.00048828119"
       id="SVGID_1_"
       gradientUnits="userSpaceOnUse"
       gradientTransform="translate(1915.9785)"><stop
         id="stop237"
         style="stop-color:#1b3967;stop-opacity:1"
         offset="0.011" /><stop
         id="stop239"
         style="stop-color:#13b5ea;stop-opacity:1"
         offset="0.46700001" /><stop
         id="stop241"
         style="stop-color:#002b5c;stop-opacity:1"
         offset="0.99449998" /></linearGradient><linearGradient
       x1="-1807.2036"
       y1="125.8584"
       x2="-1807.2036"
       y2="0.00048828119"
       id="linearGradient3718"
       xlink:href="#SVGID_1_"
       gradientUnits="userSpaceOnUse"
       gradientTransform="translate(1918.4485,-146.55553)" /><linearGradient
       x1="-1073.228"
       y1="126.8516"
       x2="-1073.228"
       y2="1.2789771e-13"
       id="linearGradient3720"
       xlink:href="#SVGID_2_"
       gradientUnits="userSpaceOnUse"
       gradientTransform="matrix(-1,0,0,1,-1005.7214,-146.55553)" /><linearGradient
       x1="-1073.228"
       y1="126.8516"
       x2="-1073.228"
       y2="1.2789771e-13"
       id="linearGradient3814"
       xlink:href="#SVGID_2_"
       gradientUnits="userSpaceOnUse"
       gradientTransform="matrix(-0.84421059,0,0,0.84421059,-824.199,72.94473)" /><linearGradient
       x1="-1807.2036"
       y1="125.8584"
       x2="-1807.2036"
       y2="0.00048828119"
       id="linearGradient3818"
       xlink:href="#SVGID_1_"
       gradientUnits="userSpaceOnUse"
       gradientTransform="matrix(0.84421059,0,0,0.84421059,1644.4162,72.94473)" /><linearGradient
       x1="-1807.2036"
       y1="125.8584"
       x2="-1807.2036"
       y2="0.00048828119"
       id="linearGradient3718-1"
       xlink:href="#SVGID_1_-5"
       gradientUnits="userSpaceOnUse"
       gradientTransform="translate(1918.4485,-146.55553)" /><linearGradient
       x1="-1807.2036"
       y1="125.8584"
       x2="-1807.2036"
       y2="0.00048828119"
       id="SVGID_1_-5"
       gradientUnits="userSpaceOnUse"
       gradientTransform="translate(1915.9785)"><stop
         id="stop237-6"
         style="stop-color:#1b3967;stop-opacity:1"
         offset="0.011" /><stop
         id="stop239-5"
         style="stop-color:#13b5ea;stop-opacity:1"
         offset="0.46700001" /><stop
         id="stop241-1"
         style="stop-color:#002b5c;stop-opacity:1"
         offset="0.99449998" /></linearGradient><linearGradient
       x1="-1073.228"
       y1="126.8516"
       x2="-1073.228"
       y2="1.2789771e-13"
       id="linearGradient3720-0"
       xlink:href="#SVGID_2_-2"
       gradientUnits="userSpaceOnUse"
       gradientTransform="matrix(-1,0,0,1,-1005.7214,-146.55553)" /><linearGradient
       x1="-1073.228"
       y1="126.8516"
       x2="-1073.228"
       y2="1.2789771e-13"
       id="SVGID_2_-2"
       gradientUnits="userSpaceOnUse"
       gradientTransform="matrix(-1,0,0,1,-1008.1914,0)"><stop
         id="stop248-1"
         style="stop-color:#1b3967;stop-opacity:1"
         offset="0.011" /><stop
         id="stop250-3"
         style="stop-color:#13b5ea;stop-opacity:1"
         offset="0.46700001" /><stop
         id="stop252-3"
         style="stop-color:#002b5c;stop-opacity:1"
         offset="0.99449998" /></linearGradient><linearGradient
       x1="-1807.2036"
       y1="125.8584"
       x2="-1807.2036"
       y2="0.00048828119"
       id="linearGradient3048"
       xlink:href="#SVGID_1_-5"
       gradientUnits="userSpaceOnUse"
       gradientTransform="translate(1918.4485,-146.55553)" /><linearGradient
       x1="-1073.228"
       y1="126.8516"
       x2="-1073.228"
       y2="1.2789771e-13"
       id="linearGradient3050"
       xlink:href="#SVGID_2_-2"
       gradientUnits="userSpaceOnUse"
       gradientTransform="matrix(-1,0,0,1,-1005.7214,-146.55553)" /></defs><g
     transform="translate(159.24832,145.42306)"
     id="g3038"><path
       d="m -59.373322,-145.42306 c -1.85796,0 -3.711084,0.47582 -5.375,1.4375 l -89.124998,51.437498 c -3.33355,1.921221 -5.375,5.499169 -5.375,9.34375 v 102.9375 c 0,3.8473 2.0436,7.41731 5.375,9.34375 l 89.124998,51.46875 c 3.333546,1.92366 7.4477,1.92366 10.78125,0 l 89.125,-51.46875 c 3.32783,-1.92644 5.40625,-5.49645 5.40625,-9.34375 v -102.9375 c 0,-3.850298 -2.07271,-7.422529 -5.40625,-9.34375 l -89.125,-51.437498 c -1.66392,-0.96168 -3.54829,-1.4375 -5.40625,-1.4375 z m -77.187498,66.999998 c 17.87397,7.155313 35.82813,14.212448 54.531248,19 -1.723222,23.33396 8.154278,46.10809 23.03125,63.71875 15.62147,-17.51859 25.64853,-40.7763 23.96875,-64.53125 18.02014,-4.653278 35.67633969,-11.144053 52.875,-18.1875 -0.11749,4.478126 -0.21884,8.957445 -0.78125,13.40625 -5.22301,35.54056 -30.31389,64.93571999 -59.625,83.9375 4.90814,3.90051 11.84702,7.37884 18.40625,9 5.48775,0.5752 8.04596,6.71098 5.46875,11.3125 -14.20614,-0.69133 -28.09133,-4.7864 -40.71875,-11.21875 -10.819719,5.02697 -22.516537,8.23427 -34.3125,10.1875 -5.084274,0.81603 -6.824688,-5.31619 -4.71875,-9.09375 7.978112,-2.07362 15.698698,-5.18538 22.59375,-9.78125 -1.930571,-2.41163 -7.124169,-4.90467 -10.125,-7.59375 -26.930288,-20.93749 -50.095168,-51.55087 -50.468748,-87.0625 z"
       id="path28"
       style="fill:#404137;fill-opacity:1;fill-rule:evenodd;stroke:none"
       inkscape:connector-curvature="0" /><g
       transform="matrix(0.84421059,0,0,0.84421059,-134.40667,51.245398)"
       id="g3710"><path
         d="m 138.76299,-132.36653 c 0.077,1.313 -1.786,0.968 -1.786,2.293 0,38.551 -44.719998,96.831 -89.846998,108.194 v 1.182 c 59.952998,-5.516 126.723998,-66.808 128.229998,-125.858 z"
         id="path243"
         style="fill:url(#linearGradient3048)"
         inkscape:connector-curvature="0" /><path
         d="m 122.69899,-128.59553 c 0.077,1.313 0.121,2.633 0.121,3.958 0,38.551 -30.699998,90.497 -75.826998,101.861 v 1.637 c 59.064998,-3.823 105.806998,-63.023 105.806998,-109.195 0,-2.375 -0.125,-4.729 -0.371,-7.056 z"
         id="path245"
         style="fill:#e96d1f"
         inkscape:connector-curvature="0" /><path
         d="m 39.068992,-132.36653 c -0.077,1.313 1.787,0.968 1.787,2.293 0,38.551 46.558,97.366 91.687998,108.729 v 1.639 c -59.956998,-5.516 -128.5639976,-67.8 -130.0739976,-126.85 z"
         id="path254"
         style="fill:url(#linearGradient3050)"
         inkscape:connector-curvature="0" /><path
         d="m 57.200992,-127.62353 c -0.076,1.313 -0.12,2.63 -0.12,3.957 0,38.551 30.699,90.497 75.826998,101.861 v 1.639 c -59.041998,-2.792 -105.807998,-63.023 -105.807998,-109.197 0,-2.375 0.128,-4.729 0.371,-7.056 z"
         id="path256"
         style="fill:#a0ce67"
         inkscape:connector-curvature="0" /><path
         d="m 27.182992,-136.97253 7.617,2.722 c -0.041,0.962 -0.066,2.254 -0.066,3.225 0,41.219 37.271,98.204 87.271998,107.12 3.245,1.088 7.538,2.077 10.932,2.931 v 1.638 c -65.251998,-5.56 -111.099998,-71.865 -105.754998,-117.636 z"
         id="path258"
         style="fill:#439639"
         inkscape:connector-curvature="0" /><path
         d="m 152.80799,-137.79553 -7.833,2.625 c 0.041,0.963 0.191,2.203 0.191,3.173 0,41.219 -37.272,98.205 -87.273998,107.12 -3.243,1.089 -7.538,2.077 -10.93,2.932 v 1.639 c 68.345998,-8.656 111.191998,-71.718 105.845998,-117.489 z"
         id="path260"
         style="fill:#d9541e"
         inkscape:connector-curvature="0" /></g></g></svg>